<?xml version="1.0" encoding="utf-8"?>
<!-- Generator: Adobe Illustrator 19.1.0, SVG Export Plug-In . SVG Version: 6.00 Build 0)  -->
<svg version="1.1" id="Layer_1" xmlns="http://www.w3.org/2000/svg" xmlns:xlink="http://www.w3.org/1999/xlink" x="0px" y="0px"
	 viewBox="0 0 131.3 115.3" style="enable-background:new 0 0 131.3 115.3;" xml:space="preserve">
<style type="text/css">
	.st0{fill:#FFFFFF;}
</style>
<g>
	<path class="st0" d="M72.4,112.4c-1.5,0.2-2.9,0.3-4.4,0.3c-17,0.6-33.3-5.5-45.8-17.1C9.7,84,2.4,68.2,1.8,51.2
		C1.3,37.2,4.7,25.9,12.9,14.3l0.7-1c0,1.2,0.1,2.8,0.2,4.3c0.7,6.3,2.5,10.2,4.5,14.8c0.4,1,0.9,1.9,1.4,3
		c1.7,3.9,3.5,7.9,3.8,12.3c0.2,2.6,0,5.7-0.3,8.7c-0.2,2.5-0.4,5.1-0.3,7.3c0.8,20.9,18.4,37.4,39.3,36.6c0.9,0,1.8-0.1,2.6-0.2
		c19.8-2.1,34.3-20.4,33.5-40.3c-0.1-1.8,0.4-7.2,0.7-8.9c1-4.7,3.2-9.1,5.3-13.4c3.7-7.5,4.5-14.9,2.9-25.8
		c-0.7-4.6-0.5-7.7-0.3-9.3l1.9,2.1C120.2,16.3,129,31,129.5,46.6C130.7,80,105.6,108.9,72.4,112.4L72.4,112.4z M11.8,21L11,22.7
		c-4.3,8.7-6.3,18-5.9,28.4c0.6,16.2,7.4,31.1,19.3,42.2c11.9,11.1,27.3,16.8,43.5,16.2c1.4-0.1,2.8-0.1,4.2-0.3
		c31.6-3.3,55.4-30.8,54.2-62.5c-0.5-12.7-7.5-25.6-15.2-35.6l-2-2.4l0.9,2.9c3.3,10.9,1.4,19.2-2.6,27.4c-2.1,4.3-4.1,8.4-5,12.7
		c-0.3,1.4-0.7,6.5-0.7,8.1c0.8,21.6-15,41.4-36.5,43.6c-0.9,0.1-1.9,0.2-2.8,0.2c-22.7,0.8-41.9-17-42.7-39.8
		c-0.1-2.3,0.1-5.1,0.3-7.7c0.2-2.9,0.5-5.9,0.3-8.2c-0.3-3.8-1.9-7.4-3.6-11.2c-0.4-0.8-0.7-1.6-1.1-2.4c-1.6-3.4-3.3-7-3.4-11.4
		L11.8,21z"/>
	<g>
		<g>
			<path class="st0" d="M114.1,46.1c-0.6,0-1.1-0.3-1.3-0.8c-0.3-0.7,0-1.6,0.7-1.9c9.9-4.4,10-9.9,10-9.9c0-0.8,0.6-1.5,1.4-1.5
				c0.8,0,1.5,0.6,1.5,1.4c0,0.3,0,7.3-11.7,12.6C114.5,46.1,114.3,46.1,114.1,46.1L114.1,46.1z"/>
		</g>
	</g>
	<g>
		<g>
			<path class="st0" d="M113.8,58.4c-0.7,0-1.3-0.5-1.4-1.2c-0.1-0.8,0.4-1.5,1.2-1.7c10-1.9,12.9-9.5,13-9.8
				c0.3-0.7,1.1-1.1,1.8-0.9c0.8,0.3,1.1,1.1,0.9,1.8c-0.1,0.4-3.4,9.5-15.2,11.7C113.9,58.4,113.8,58.4,113.8,58.4L113.8,58.4z"/>
		</g>
	</g>
	<g>
		<g>
			<path class="st0" d="M112.9,71c-0.8,0-1.4-0.6-1.4-1.4c0-0.8,0.6-1.4,1.4-1.5c10.8-0.1,12.6-9.2,12.7-9.6
				c0.1-0.8,0.9-1.3,1.7-1.2c0.8,0.1,1.3,0.9,1.2,1.7C128.3,59.1,126,70.8,112.9,71C112.9,71,112.9,71,112.9,71L112.9,71z"/>
		</g>
	</g>
	<g>
		<g>
			<path class="st0" d="M12,48c-0.3,0-0.6-0.1-0.9-0.3C3.7,42,3.4,35.8,3.3,35.5c0-0.8,0.6-1.5,1.4-1.5c0.8,0,1.5,0.6,1.5,1.4
				c0,0.2,0.4,5.2,6.7,10c0.6,0.5,0.7,1.4,0.3,2C12.9,47.8,12.5,48,12,48L12,48z"/>
		</g>
	</g>
	<g>
		<g>
			<path class="st0" d="M10.4,56.1c-0.2,0-0.4,0-0.6-0.1C1.5,52.3,2,45.2,2.1,44.9c0.1-0.8,0.8-1.4,1.6-1.3c0.8,0.1,1.4,0.8,1.3,1.6
				c0,0.2-0.3,5.4,6,8.2c0.7,0.3,1.1,1.2,0.7,1.9C11.5,55.8,10.9,56.1,10.4,56.1L10.4,56.1z"/>
		</g>
	</g>
	<g>
		<g>
			<path class="st0" d="M8.9,65.1c-0.1,0-0.2,0-0.3,0C2.4,64,2,54.9,2,54.5c0-0.8,0.6-1.5,1.4-1.5c0.8,0,1.5,0.6,1.5,1.4l0,0
				c0,0.1,0.4,7.2,4.3,7.9c0.8,0.1,1.3,0.9,1.2,1.7C10.2,64.7,9.6,65.1,8.9,65.1L8.9,65.1z"/>
		</g>
	</g>
	<g>
		<g>
			<path class="st0" d="M109.6,84c-0.1,0-0.2,0-0.3,0c-0.8,0-1.4-0.7-1.4-1.5c0-0.8,0.7-1.4,1.4-1.4c0,0,0,0,0,0
				c10.6,0.1,12.1-7.6,12.2-7.9c0.1-0.8,0.9-1.3,1.7-1.2c0.8,0.1,1.3,0.9,1.2,1.7C124.3,73.7,122.4,84,109.6,84L109.6,84z"/>
		</g>
	</g>
	<path class="st0" d="M54.1,93c-0.1,0-0.2,0-0.3,0c-0.1,0-0.2,0-0.3-0.1c-0.1,0-0.2,0-0.3-0.1c-0.1,0-0.2,0-0.3-0.1
		c-1.4-0.4-2.6-1.2-3.6-2.4c-1-1.1-1.8-2.5-2.3-4.2c-0.6-1.6-0.9-3.5-0.9-5.4c0-1.9,0.2-4,0.7-6c0.5-1.9,1.2-3.7,2.1-5.3
		c0.9-1.6,1.9-2.9,3.1-4c1.1-1.1,2.4-1.9,3.7-2.4c1.3-0.5,2.6-0.7,3.9-0.5c0.1,0,0.2,0,0.3,0c0.1,0,0.2,0,0.3,0.1
		c0.1,0,0.2,0,0.3,0.1c0.1,0,0.2,0,0.3,0.1c1.4,0.4,2.6,1.2,3.6,2.3c1,1.1,1.8,2.5,2.4,4.2c0.6,1.6,0.9,3.5,0.9,5.4
		c0,2-0.2,4-0.7,6.1c-0.5,1.9-1.2,3.7-2.1,5.3c-0.9,1.6-1.9,2.9-3.1,4c-1.2,1.1-2.4,1.9-3.7,2.4C56.7,93,55.4,93.2,54.1,93
		 M60.1,59.3c-1.7-0.2-3.4,0-5,0.6c-1.6,0.6-3.2,1.6-4.6,2.9c-1.4,1.3-2.7,2.9-3.8,4.8c-1.1,1.9-2,4-2.6,6.3c-0.6,2.5-0.9,5-0.8,7.3
		c0.1,2.4,0.5,4.6,1.3,6.6c0.7,2,1.8,3.7,3.1,5.1c1.3,1.4,2.8,2.4,4.6,2.9c0.1,0,0.2,0.1,0.3,0.1c0.1,0,0.2,0.1,0.3,0.1
		c0.1,0,0.2,0,0.3,0.1c0.1,0,0.2,0,0.3,0.1c1.7,0.3,3.4,0.1,5-0.5c1.6-0.6,3.2-1.6,4.7-2.9c1.5-1.3,2.8-2.9,3.9-4.8
		c1.1-1.9,2-4,2.6-6.4c0.6-2.5,0.9-5,0.8-7.4c-0.1-2.4-0.5-4.6-1.3-6.6c-0.7-2-1.8-3.7-3.1-5.1c-1.3-1.4-2.9-2.4-4.6-2.9
		c-0.1,0-0.2-0.1-0.3-0.1c-0.1,0-0.2-0.1-0.3-0.1c-0.1,0-0.2,0-0.3-0.1C60.3,59.4,60.2,59.3,60.1,59.3"/>
	<path class="st0" d="M69.7,54.8c-0.5-0.1-1-0.2-1.6-0.2c-0.5-0.1-1.1-0.2-1.6-0.3c-0.6-0.1-1.1-0.3-1.7-0.4
		c-0.6-0.1-1.2-0.3-1.7-0.5c-1.9-0.5-3.5-1.1-4.9-1.7c-1.4-0.6-2.6-1.2-3.7-1.7c-1-0.6-1.8-1.1-2.4-1.6c-0.6-0.5-1.1-0.9-1.3-1.2
		l-0.5-0.6l0.7-0.2c0.3-0.1,0.6-0.2,1.1-0.3c0.4-0.1,1-0.1,1.5-0.1c0.6,0,1.3,0,2,0c0.7,0,1.6,0.1,2.5,0.2c0.5,0.1,1,0.1,1.6,0.2
		c0.5,0.1,1.1,0.2,1.6,0.3c0.6,0.1,1.1,0.2,1.7,0.4c0.6,0.1,1.2,0.3,1.7,0.5c1.9,0.5,3.5,1.1,5,1.7c1.4,0.6,2.7,1.2,3.7,1.7
		c1,0.6,1.9,1.1,2.5,1.6c0.6,0.5,1.1,0.9,1.4,1.2l0.5,0.6l-0.7,0.2c-0.3,0.1-0.6,0.2-1.1,0.2c-0.4,0.1-1,0.1-1.6,0.1
		c-0.6,0-1.3,0-2,0C71.5,55,70.6,54.9,69.7,54.8 M58.2,42.9c-1.1-0.1-2.3-0.2-3.4-0.3c-1.1,0-2.3,0-3.3,0.2c-1,0.2-1.9,0.5-2.6,1
		c-0.7,0.5-1.2,1.1-1.4,2c-0.3,1.2,0.1,2.3,0.9,3.4c0.9,1.1,2.2,2.1,3.7,3.1c1.5,0.9,3.3,1.8,5.1,2.5c1.8,0.7,3.5,1.3,5.1,1.8
		c0.6,0.2,1.2,0.3,1.8,0.5c0.6,0.2,1.2,0.3,1.8,0.4c0.6,0.1,1.2,0.2,1.8,0.3c0.6,0.1,1.2,0.2,1.7,0.3c0.4,0.1,0.8,0.1,1.1,0.1
		c0.4,0,0.7,0.1,1.1,0.1c0.4,0,0.7,0,1.1,0.1c0.3,0,0.7,0,1,0c1,0,1.9-0.1,2.6-0.2c0.8-0.1,1.4-0.3,2-0.6c0.6-0.3,1-0.6,1.4-1
		c0.3-0.4,0.6-0.8,0.7-1.4c0.3-1.2-0.1-2.4-1-3.5c-0.9-1.1-2.2-2.1-3.8-3.1c-1.6-0.9-3.4-1.8-5.2-2.5c-1.8-0.7-3.6-1.3-5.1-1.8
		c-0.1,0-0.5-0.1-0.9-0.2c-0.4-0.1-1-0.2-1.6-0.4c-0.6-0.1-1.4-0.3-2.2-0.4C59.9,43.2,59.1,43.1,58.2,42.9"/>
</g>
</svg>
