<?xml version="1.0" encoding="utf-8"?>
<!-- Generator: Adobe Illustrator 19.0.0, SVG Export Plug-In . SVG Version: 6.00 Build 0)  -->
<svg version="1.1" id="Layer_1" xmlns="http://www.w3.org/2000/svg" xmlns:xlink="http://www.w3.org/1999/xlink" x="0px" y="0px"
	 viewBox="0 0 269.2 54.1" style="enable-background:new 0 0 269.2 54.1;" xml:space="preserve">
<style type="text/css">
	.st0{fill:#1D1D1B;}
</style>
<g id="XMLID_3_">
	<g id="XMLID_24_">
		<g id="XMLID_29_">
			<g id="XMLID_30_">
				<path id="XMLID_31_" class="st0" d="M260.2,22.1c-5,0-9-4-9-9s4-9,9-9c5,0,9,4,9,9C269.2,18,265.1,22.1,260.2,22.1z M260.2,6.1
					c-3.8,0-7,3.1-7,7c0,3.8,3.1,7,7,7c3.8,0,7-3.1,7-7C267.1,9.2,264,6.1,260.2,6.1z"/>
			</g>
		</g>
		<g id="XMLID_25_">
			<path id="XMLID_26_" class="st0" d="M259,13.5L259,13.5V17h-1.9V8.4h3.2c1.4,0,2.6,1.1,2.6,2.6c0,1.1-0.7,2-1.7,2.4L264,17h-2.3
				L259,13.5z M260.1,11.9c0.5,0,0.9-0.4,0.9-0.8c0-0.5-0.4-0.9-0.9-0.9H259v1.7L260.1,11.9z"/>
		</g>
	</g>
	<g id="XMLID_4_">
		<path id="XMLID_20_" class="st0" d="M0,0h20.1C28.8,0,36,7.2,36,15.9c0,3.8-1.4,6.9-3.8,9.2c4.5,2.4,7.5,6.8,7.5,12.5
			c0,8.8-7.2,15.9-16.2,15.9H0V0z M18.8,21.6c3.2,0,5.6-2.3,5.6-5.3c0-2.9-2.3-5.3-5.6-5.3h-6.9v10.6H18.8z M22.4,42.4
			c3.2,0,5.6-2.3,5.6-5.3c0-2.9-2.3-5.3-5.6-5.3H11.9v10.6L22.4,42.4z"/>
		<path id="XMLID_17_" class="st0" d="M59.9,54.1c-11.1,0-18.2-9.1-18.2-19.4s7.1-19.4,18.2-19.4c3.1,0,6.1,1.1,8.3,2.9v-2.3h11.4
			v37.7H68.2v-2.4C66,53,63,54.1,59.9,54.1z M68.2,40.5V28.8c-1.5-2-3.6-3.2-6.4-3.2c-5.4,0-8.7,4.1-8.7,9c0,5,3.2,9,8.7,9
			C64.6,43.7,66.7,42.5,68.2,40.5z"/>
		<path id="XMLID_15_" class="st0" d="M84,0h11.4v53.5H84V0z"/>
		<path id="XMLID_12_" class="st0" d="M116.4,54.1c-11.1,0-18.2-9.1-18.2-19.4s7.1-19.4,18.2-19.4c3.1,0,6.1,1.1,8.3,2.9v-2.3h11.4
			v37.7h-11.4v-2.4C122.5,53,119.5,54.1,116.4,54.1z M124.7,40.5V28.8c-1.5-2-3.6-3.2-6.4-3.2c-5.4,0-8.7,4.1-8.7,9c0,5,3.2,9,8.7,9
			C121.1,43.7,123.2,42.5,124.7,40.5z"/>
		<path id="XMLID_10_" class="st0" d="M158.2,25.6c-2.2,0-4.9,1.1-6.8,3.2v24.6H140V15.8h11.4v2.3c2.3-1.8,5.3-2.9,8.7-2.9
			c10.6,0,16.4,7.1,16.4,17.2v21h-11.3v-19C165.2,29.4,163.2,25.6,158.2,25.6z"/>
		<path id="XMLID_8_" class="st0" d="M178.8,34.6c0-10.7,8.7-19.4,19.6-19.4c6.9,0,13,3.5,16.5,8.9l-9,6.4c-1.5-2.8-4.1-4.7-7.5-4.7
			c-4.7,0-8.1,3.6-8.1,8.8s3.5,8.8,8.1,8.8c3.3,0,5.9-1.9,7.5-4.7l9,6.4c-3.5,5.3-9.6,8.9-16.5,8.9
			C187.5,54.1,178.8,45.3,178.8,34.6z"/>
		<path id="XMLID_5_" class="st0" d="M215.3,34.6c0-11.1,7.8-19.4,19.4-19.4c9.6,0,18.2,6.3,18.2,18.2c0,1.1-0.1,2.2-0.2,3.3h-26.5
			c0.6,5,4.8,7,8.2,7c4,0,6.6-2,8.1-4.7l9,6.1c-3.5,5.4-9.6,9-17,9C224.6,54.1,215.3,46.2,215.3,34.6z M241.7,30l-0.1-0.5
			c-0.8-3.7-4-5.3-7.5-5.3c-2.7,0-6.6,1.2-7.7,5.7L241.7,30L241.7,30z"/>
	</g>
</g>
</svg>
