<?xml version="1.0" encoding="utf-8"?>
<!-- Generator: Adobe Illustrator 17.0.1, SVG Export Plug-In . SVG Version: 6.00 Build 0)  -->
<!DOCTYPE svg PUBLIC "-//W3C//DTD SVG 1.1//EN" "http://www.w3.org/Graphics/SVG/1.1/DTD/svg11.dtd">
<svg version="1.1" id="Layer_1" xmlns="http://www.w3.org/2000/svg" xmlns:xlink="http://www.w3.org/1999/xlink" x="0px" y="0px"
	 width="169.032px" height="172.258px" viewBox="0 0 169.032 172.258" enable-background="new 0 0 169.032 172.258"
	 xml:space="preserve">
<linearGradient id="SVGID_1_" gradientUnits="userSpaceOnUse" x1="-294.7114" y1="45.2077" x2="300.4259" y2="45.2077" gradientTransform="matrix(-0.0024 -0.0024 0.003 -0.003 -3979.4668 -3744.8459)">
	<stop  offset="0" style="stop-color:#ADAFB1"/>
	<stop  offset="0.4941" style="stop-color:#FFFFFF"/>
	<stop  offset="1" style="stop-color:#B1B2B3"/>
</linearGradient>
<path fill="url(#SVGID_1_)" d="M83.933,4.67c-0.327,0.072-0.653,0.29-0.943,0.581L3.474,84.802
	c-0.326,0.254-0.508,0.581-0.581,0.908l3.124,0.035L84.151,7.685L83.933,4.67z"/>
<linearGradient id="SVGID_2_" gradientUnits="userSpaceOnUse" x1="13344.3604" y1="24604.5137" x2="13939.5537" y2="24604.5137" gradientTransform="matrix(0.0032 -0.0032 0.1367 0.1367 -3282.8853 -3274.0181)">
	<stop  offset="0" style="stop-color:#ADAFB1"/>
	<stop  offset="0.4941" style="stop-color:#FFFFFF"/>
	<stop  offset="1" style="stop-color:#B1B2B3"/>
</linearGradient>
<path fill="url(#SVGID_2_)" d="M83.933,4.67l0.218,3.015l78.098,78.099h3.306c-0.037-0.328-0.219-0.654-0.581-0.981L85.458,5.251
	C84.95,4.779,84.442,4.562,83.933,4.67z"/>
<linearGradient id="SVGID_3_" gradientUnits="userSpaceOnUse" x1="-294.7139" y1="126.5569" x2="300.4271" y2="126.5569" gradientTransform="matrix(-0.0027 -0.0027 0.0035 -0.0035 -3758.3965 -3526.3806)">
	<stop  offset="0" style="stop-color:#C7C7C9"/>
	<stop  offset="0.4941" style="stop-color:#FFFFFF"/>
	<stop  offset="1" style="stop-color:#C5C6C8"/>
</linearGradient>
<path fill="url(#SVGID_3_)" d="M164.973,87.236c0.472-0.472,0.654-0.944,0.581-1.452h-3.306L84.151,163.88l0.291,3.45
	c0.363-0.036,0.653-0.254,1.016-0.581L164.973,87.236z"/>
<linearGradient id="SVGID_4_" gradientUnits="userSpaceOnUse" x1="6720.8882" y1="-22608.8203" x2="7316.0283" y2="-22608.8203" gradientTransform="matrix(-0.0544 0.0943 -0.2273 -0.1312 -4665.7983 -3526.2295)">
	<stop  offset="0.0039" style="stop-color:#7A3487"/>
	<stop  offset="1" style="stop-color:#5B2370"/>
</linearGradient>
<path fill="url(#SVGID_4_)" d="M162.249,85.783L84.151,7.685l-0.072,156.122c0.435-0.398,0.472-0.398,0.072,0.073L162.249,85.783z"
	/>
<linearGradient id="SVGID_5_" gradientUnits="userSpaceOnUse" x1="53587.0352" y1="24521.1777" x2="54182.1641" y2="24521.1777" gradientTransform="matrix(0.0034 -0.0034 0.1371 0.1371 -3500.8215 -3052.6973)">
	<stop  offset="0" style="stop-color:#ADAFB1"/>
	<stop  offset="0.4941" style="stop-color:#FFFFFF"/>
	<stop  offset="1" style="stop-color:#B1B2B3"/>
</linearGradient>
<path fill="url(#SVGID_5_)" d="M2.894,85.71c-0.145,0.507,0.073,1.017,0.581,1.525l79.516,79.514
	c0.472,0.509,0.979,0.69,1.452,0.581l-0.291-3.45l-0.072-0.073L6.017,85.745L2.894,85.71z"/>
<linearGradient id="SVGID_6_" gradientUnits="userSpaceOnUse" x1="28537.5762" y1="-15838.1533" x2="29132.7148" y2="-15838.1533" gradientTransform="matrix(0.024 0.129 -0.2578 0.048 -4717.5044 -2845.4351)">
	<stop  offset="0" style="stop-color:#BD0062"/>
	<stop  offset="1" style="stop-color:#7D1242"/>
</linearGradient>
<path fill="url(#SVGID_6_)" d="M84.079,163.807L84.151,7.685L6.017,85.745L84.079,163.807z"/>
<g>
	<path fill="#C2BFC3" d="M83.92,165.307C83.919,165.307,83.919,165.307,83.92,165.307c-0.314-0.001-0.569-0.672-0.568-1.501
		L83.379,7.684c0-0.829,0.254-1.499,0.568-1.499l0,0c0.313,0,0.568,0.672,0.568,1.5l-0.028,156.122
		C84.488,164.636,84.233,165.307,83.92,165.307L83.92,165.307z"/>
</g>
<g>
	
		<linearGradient id="SVGID_7_" gradientUnits="userSpaceOnUse" x1="33220.6719" y1="-19198.2715" x2="33815.8164" y2="-19198.2715" gradientTransform="matrix(0 0.1001 -0.2495 0 -4705.8535 -3306.5891)">
		<stop  offset="0" style="stop-color:#FFFFFF;stop-opacity:0.78"/>
		<stop  offset="1" style="stop-color:#FFFFFF;stop-opacity:0.11"/>
	</linearGradient>
	<path fill="url(#SVGID_7_)" d="M157.78,86.401l0.582-0.617L84.151,11.535L9.868,85.745l0.617,0.655
		C32.861,62.317,81.972,62.317,157.78,86.401z"/>
</g>
<g>
	<g>
		<path fill="#FFFFFF" d="M88.112,105.143c0,1.126,0.398,2.071,1.161,2.87c0.799,0.763,1.743,1.163,2.834,1.163
			c1.127,0,2.033-0.4,2.87-1.163c0.762-0.799,1.162-1.744,1.162-2.87c0-1.089-0.4-2.033-1.162-2.832
			c-0.836-0.765-1.743-1.162-2.87-1.162c-1.091,0-2.035,0.397-2.834,1.162C88.51,103.11,88.112,104.054,88.112,105.143z"/>
	</g>
	<g>
		<path fill="#FFFFFF" d="M98.718,105.143c0,1.126,0.362,2.071,1.162,2.87c0.799,0.763,1.743,1.163,2.833,1.163
			c1.091,0,2.071-0.4,2.871-1.163c0.763-0.799,1.125-1.744,1.125-2.87c0-1.089-0.363-2.033-1.125-2.832
			c-0.8-0.765-1.78-1.162-2.871-1.162c-1.09,0-2.034,0.397-2.833,1.162C99.08,103.11,98.718,104.054,98.718,105.143z"/>
	</g>
	<g>
		<path fill="#FFFFFF" d="M109.398,105.143c0,1.126,0.399,2.071,1.198,2.87c0.763,0.763,1.707,1.163,2.835,1.163
			c1.089,0,2.033-0.4,2.832-1.163c0.799-0.799,1.163-1.744,1.163-2.87c0-1.089-0.364-2.033-1.163-2.832
			c-0.799-0.765-1.743-1.162-2.832-1.162c-1.128,0-2.071,0.397-2.835,1.162C109.797,103.11,109.398,104.054,109.398,105.143z"/>
	</g>
	<g>
		<path fill="#FFFFFF" d="M120.112,105.143c0,1.126,0.4,2.071,1.2,2.87c0.762,0.763,1.707,1.163,2.833,1.163
			c1.089,0,2.034-0.4,2.832-1.163c0.8-0.799,1.164-1.744,1.164-2.87c0-1.089-0.364-2.033-1.164-2.832
			c-0.798-0.765-1.743-1.162-2.832-1.162c-1.126,0-2.071,0.397-2.833,1.162C120.512,103.11,120.112,104.054,120.112,105.143z"/>
	</g>
</g>
<g>
	<path fill="#FFFFFF" d="M102.786,77.973v-3.561H86.622v20.996h16.563v-3.523H91.016v-5.739h10.935v-3.523H91.016v-4.649H102.786z"
		/>
	<path fill="#FFFFFF" d="M116.226,74.412h-9.264v20.996h4.396v-8.754h0.871c1.018,0,1.78,0.072,2.252,0.218
		c0.473,0.183,0.909,0.472,1.309,0.907c0.436,0.437,1.198,1.417,2.324,3.052l3.197,4.577h5.267l-2.652-4.068
		c-1.053-1.636-1.89-2.797-2.506-3.451c-0.653-0.617-1.416-1.198-2.361-1.743c1.89-0.254,3.343-0.907,4.287-1.925
		c0.981-1.054,1.453-2.325,1.453-3.924c0-1.234-0.29-2.36-0.944-3.305c-0.618-0.945-1.49-1.635-2.543-1.999
		C120.258,74.595,118.587,74.412,116.226,74.412z M111.359,83.312v-5.339h3.45c1.78,0,2.871,0,3.197,0.072
		c0.691,0.109,1.271,0.399,1.672,0.799c0.363,0.473,0.581,1.018,0.581,1.743c0,0.618-0.146,1.126-0.435,1.563
		c-0.328,0.437-0.691,0.728-1.236,0.873c-0.545,0.181-1.854,0.289-3.96,0.289H111.359z"/>
	<path fill="#FFFFFF" d="M69.911,79.354c0.981-1.091,2.29-1.672,3.888-1.672c1.198,0,2.179,0.291,3.015,0.944
		c0.799,0.618,1.344,1.489,1.597,2.579l4.36-0.98c-0.472-1.708-1.235-3.015-2.252-3.887c-1.636-1.526-3.814-2.288-6.502-2.288
		c-3.015,0-5.484,0.943-7.374,2.905c-1.889,1.926-2.834,4.65-2.834,8.174c0,3.304,0.945,5.885,2.834,7.81
		c1.853,1.888,4.25,2.832,7.156,2.832c2.324,0,4.249-0.544,5.776-1.669c1.488-1.091,2.579-2.799,3.268-5.122l-4.286-1.271
		c-0.363,1.525-0.944,2.687-1.817,3.377c-0.834,0.69-1.853,1.054-3.015,1.054c-1.562,0-2.869-0.545-3.886-1.671
		c-0.981-1.125-1.489-3.016-1.489-5.666C68.351,82.296,68.895,80.48,69.911,79.354z"/>
	<path fill="#FFFFFF" d="M46.918,74.412h-4.25v20.996h4.068V81.713l8.828,13.695h4.395V74.412h-4.105v14.021L46.918,74.412z"/>
</g>
</svg>
